HIERARCHY
ROOT hip
{
	OFFSET 0.000000 0.000000 0.000000 
	CHANNELS 6 Xposition Yposition Zposition Xrotation Zrotation Yrotation
	JOINT abdomen
	{
		OFFSET 0.000000 3.402643 0.000000 
		CHANNELS 3 Xrotation Zrotation Yrotation
		JOINT chest
		{
			OFFSET 0.000000 8.438565 -0.680529 
			CHANNELS 3 Xrotation Zrotation Yrotation
			JOINT neck
			{
				OFFSET 0.000000 10.207942 -0.272212 
				CHANNELS 3 Xrotation Zrotation Yrotation
				JOINT head
				{
					OFFSET 0.000000 3.130431 0.000000 
					CHANNELS 3 Xrotation Zrotation Yrotation
					End Site
					{
						OFFSET 0.000000 3.130435 0.000000 
					}
				}
			}
			JOINT lCollar
			{
				OFFSET 3.470700 6.669187 -0.816635 
				CHANNELS 3 Yrotation Zrotation Xrotation
				JOINT lShldr
				{
					OFFSET 3.198488 0.000000 0.000000 
					CHANNELS 3 Zrotation Yrotation Xrotation
					JOINT lForeArm
					{
						OFFSET 10.139888 0.000000 0.000000 
						CHANNELS 3 Yrotation Zrotation Xrotation
						JOINT lHand
						{
							OFFSET 8.370511 0.000000 0.000000 
							CHANNELS 3 Zrotation Yrotation Xrotation
							End Site
							{
								OFFSET 4.083176 0.000000 0.000000 
							}
						}
					}
				}
			}
			JOINT rCollar
			{
				OFFSET -3.470700 6.669187 -0.816635 
				CHANNELS 3 Yrotation Zrotation Xrotation
				JOINT rShldr
				{
					OFFSET -3.198488 0.000000 0.000000 
					CHANNELS 3 Zrotation Yrotation Xrotation
					JOINT rForeArm
					{
						OFFSET -10.139888 0.000000 0.000000 
						CHANNELS 3 Yrotation Zrotation Xrotation
						JOINT rHand
						{
							OFFSET -8.370511 0.000000 0.000000 
							CHANNELS 3 Zrotation Yrotation Xrotation
							End Site
							{
								OFFSET -4.083176 0.000000 0.000000 
							}
						}
					}
				}
			}
		}
	}
	JOINT lThigh
	{
		OFFSET 5.308129 -1.633274 1.361059 
		CHANNELS 3 Xrotation Zrotation Yrotation
		JOINT lShin
		{
			OFFSET -2.041588 -20.007561 0.000000 
			CHANNELS 3 Xrotation Zrotation Yrotation
			JOINT lFoot
			{
				OFFSET 0.000000 -19.190928 -1.224953 
				CHANNELS 3 Xrotation Yrotation Zrotation
				End Site
				{
					OFFSET 0.000000 -2.449906 4.627600 
				}
			}
		}
	}
	JOINT rThigh
	{
		OFFSET -5.308129 -1.633274 1.361059 
		CHANNELS 3 Xrotation Zrotation Yrotation
		JOINT rShin
		{
			OFFSET 2.041588 -20.007561 0.000000 
			CHANNELS 3 Xrotation Zrotation Yrotation
			JOINT rFoot
			{
				OFFSET 0.000000 -19.190928 -1.224953 
				CHANNELS 3 Xrotation Yrotation Zrotation
				End Site
				{
					OFFSET 0.000000 -2.449906 4.627600 
				}
			}
		}
	}
}
MOTION
Frames: 13
Frame Time: 0.016667
2.615230 44.734581 12.673583 -16.079439 19.980858 5.260544 8.255935 -1.815896 -1.358287 13.580647 -14.031825 5.395028 27.240612 -13.043095 -1.404638 -7.020309 2.855387 -3.695574 1.254066 -25.000000 11.533630 -41.946430 -3.423604 21.273857 -61.629570 8.631012 9.707710 25.915583 -16.127829 -10.212944 16.467340 -1.663181 14.844745 51.009491 25.255735 32.480942 46.962910 -11.236924 11.437574 -37.540257 10.766800 -29.284679 -6.334344 -15.782527 -2.866027 46.536999 -1.025529 -1.291625 -15.049593 -16.308065 -2.079698 -1.806558 -12.132854 -3.567123 69.864922 -1.660008 1.885658 -23.274683 -21.778486 3.634896 
2.253852 44.793301 12.897608 -15.956695 20.468758 8.439867 8.255935 -1.815896 -1.358287 15.056684 -14.454442 4.225313 27.480404 -12.010993 -3.374759 -8.076813 3.911683 -4.864832 0.814483 -25.000000 12.813841 -38.142071 -10.091729 21.907068 -61.620739 8.632506 9.710365 21.621605 -15.552716 -3.292758 15.493834 -2.012508 16.186726 49.338070 27.326693 35.383820 41.971710 -11.637751 10.905461 -30.423141 10.868332 -25.204145 -5.253467 -15.205050 -3.249847 45.998528 -0.917996 -1.567813 -14.387980 -19.139364 -1.949056 -2.978324 -11.453300 -2.107024 72.832947 -1.591527 2.028059 -16.608192 -18.830534 3.610608 
1.824156 45.022812 12.944689 -14.887391 19.844233 11.888682 8.255935 -1.815896 -1.358287 15.791162 -14.407051 2.820833 27.590424 -10.209387 -5.399503 -8.601341 5.129508 -5.852924 -0.324286 -25.000000 13.280351 -33.668907 -17.361061 21.778292 -62.688820 8.530294 9.642521 17.721251 -14.898153 3.817607 14.177052 -2.222040 16.627554 45.656807 30.457172 37.271484 39.466122 -11.829534 10.564876 -24.877207 11.115748 -21.783867 -5.583029 -13.575076 -4.374334 45.119976 -0.927870 -1.524686 -13.666685 -21.926222 -1.888927 -5.445916 -11.554788 -0.970809 75.290482 -1.786990 1.973904 -10.425177 -11.615065 3.865240 
1.333049 45.452644 12.841367 -12.679644 18.037580 15.383862 8.255935 -1.815896 -1.358287 15.743429 -13.735091 1.596431 27.412252 -7.593814 -6.769892 -8.761471 6.888349 -6.580709 -1.798493 -25.000000 12.859197 -28.840796 -25.083630 20.336126 -63.930763 8.455654 9.751204 14.862969 -14.570376 10.710580 12.848043 -1.981393 16.214197 40.073116 33.764313 37.102268 39.271866 -11.834890 10.550661 -20.725643 11.360317 -18.638357 -6.854571 -11.629986 -6.236795 43.187763 -0.908295 -1.414742 -12.216056 -23.900455 -2.052737 -8.238783 -11.381906 -0.514691 75.639626 -1.942922 1.888757 -5.566186 -3.701247 3.580713 
0.794228 46.103504 12.628844 -10.371740 15.257565 18.252848 8.255935 -1.815896 -1.358287 15.143748 -12.753591 0.409915 27.141720 -4.679353 -8.123507 -8.215636 8.445122 -6.900958 -3.568413 -25.000000 11.929646 -23.675135 -32.944450 18.201601 -64.836334 8.419765 9.995285 13.026703 -14.483503 16.126932 11.465936 -1.540465 15.230208 32.483665 36.789898 35.332970 40.706028 -11.798716 10.713495 -17.893345 11.155460 -15.221620 -8.765165 -9.291723 -8.505597 40.212845 -0.892211 -1.467765 -10.052887 -25.144348 -1.822053 -10.609867 -11.478541 -0.434376 74.244102 -1.952966 1.826286 -2.707988 1.821925 3.522444 
0.223249 46.966591 12.344000 -7.942018 11.743176 20.336937 8.255935 -1.815896 -1.358287 14.167048 -11.445002 -0.429012 26.880245 -1.930233 -8.784474 -7.140759 9.662401 -7.132604 -5.235348 -24.188139 10.600163 -18.423658 -40.246147 15.128638 -65.012016 8.435362 10.006158 12.357284 -14.958651 19.326771 10.329308 -0.749595 13.727154 23.224152 39.282253 31.758055 43.207275 -11.601990 11.055182 -16.072353 10.616341 -12.121426 -10.610956 -6.412076 -11.128657 35.967026 -1.084028 -1.446713 -6.919913 -24.567276 -1.972828 -12.222939 -11.354053 -0.579647 70.910240 -1.601470 1.952133 -0.826194 3.288973 3.483766 
-0.367130 47.987938 12.014756 -5.584534 8.200703 21.728619 8.255935 -1.815896 -1.358287 12.838465 -9.784120 -0.842897 26.687170 0.569072 -9.004331 -5.882102 10.515108 -7.151383 -6.558375 -22.525265 9.210784 -12.922801 -46.841354 11.409814 -64.639839 8.415307 9.809340 12.657958 -15.334707 20.014914 9.551151 0.504689 12.078010 13.025152 40.591728 27.423117 46.425999 -11.371684 11.501660 -14.959967 9.739635 -9.870811 -12.154681 -3.455384 -13.693812 30.523767 -0.820377 -1.421650 -2.734093 -23.087069 -2.257921 -12.926817 -11.188832 -1.784402 65.841286 -1.415723 1.535771 1.149682 2.481999 3.316010 
-0.966573 49.063351 11.665178 -3.269386 4.650830 22.422190 8.255935 -1.815896 -1.358287 11.358515 -8.113719 -1.115899 26.557322 2.709491 -9.121367 -4.607905 10.833241 -7.227554 -7.665049 -20.796404 7.998524 -7.113798 -52.191460 7.272887 -64.479401 8.472088 9.953552 13.690338 -15.506797 18.957541 8.925635 1.845956 10.494914 2.489412 40.874195 22.766632 50.149105 -11.024712 11.816390 -14.058847 8.717892 -8.642566 -13.500752 -0.730891 -15.665310 24.031500 -1.074169 -1.172217 2.304183 -19.039064 -2.006970 -12.595746 -10.496296 -3.610103 59.504868 -1.249622 1.784809 3.233222 -0.331448 3.398430 
-1.564636 50.050114 11.320632 -1.080240 1.639099 22.754143 8.255935 -1.815896 -1.358287 9.916762 -6.766109 -1.200366 26.332134 4.117442 -9.115110 -3.180522 10.786645 -7.147180 -8.489788 -19.277966 6.450179 -0.794608 -56.440327 2.408837 -64.838051 8.429381 9.995285 14.794210 -15.427521 16.940924 8.698127 2.887336 8.670865 -7.604324 40.090412 18.186037 54.222668 -10.565513 12.159851 -13.220508 7.561637 -8.509728 -14.052306 1.251671 -15.016663 16.982347 -0.785614 -1.015473 8.255766 -14.820153 -2.054569 -11.362716 -10.307651 -5.555192 52.487606 -1.232108 1.553004 5.631310 -2.045807 3.613361 
-2.150020 50.796650 11.006528 0.946411 -0.278773 22.949501 8.255935 -1.815896 -1.358287 8.479384 -5.926319 -1.257434 26.149185 5.161029 -8.971936 -2.103462 10.755043 -7.256332 -9.072492 -18.088905 5.310687 5.824368 -59.413822 -3.332347 -65.724030 8.400486 10.054383 15.856837 -15.000412 14.997379 8.566950 3.690529 7.277906 -16.127483 38.347366 13.810339 58.487762 -10.134441 12.639055 -12.278493 6.726754 -8.922798 -14.026421 2.607671 -12.328536 10.464930 -0.722266 -0.490939 14.061567 -11.253107 -2.231571 -9.667459 -10.536220 -7.383719 45.807312 -0.908081 1.465665 7.229009 -3.769050 3.417726 
-2.714394 51.182762 10.738841 2.844401 -0.872662 22.893320 8.255935 -1.815896 -1.358287 7.238667 -5.770041 -1.286559 25.787855 5.161029 -8.971936 -1.207211 10.891371 -7.229388 -9.516255 -17.916084 3.994903 12.760831 -61.504017 -9.621967 -66.610741 8.345662 10.131188 16.337156 -14.467693 13.240472 8.587800 3.479354 6.050131 -22.262203 35.850628 9.566752 62.565399 -9.678295 12.918431 -10.759116 6.460394 -7.821904 -13.361067 2.596739 -6.726927 4.470412 -0.653157 -0.769774 18.065527 -8.829584 -2.527320 -7.000447 -11.119677 -8.681435 40.000690 -0.888310 1.263260 7.745039 -4.556988 3.749979 
-3.261797 51.156841 10.512634 4.401046 -0.053983 22.880867 8.255935 -1.815896 -1.358287 6.361928 -6.638445 -1.475341 25.378195 4.923693 -9.390203 -0.647317 11.215357 -7.058764 -9.933072 -18.645935 2.935935 19.482307 -63.163567 -16.134211 -67.150108 8.306167 10.180966 16.664810 -14.104608 11.521852 8.549130 2.466574 5.303579 -25.584459 32.884373 4.947748 65.937103 -9.295330 13.254256 -9.878309 6.553133 -7.639518 -12.337717 1.346890 -1.127166 0.146463 -0.652713 -0.551601 20.917049 -9.006630 -2.325004 -4.218488 -13.044969 -8.857277 35.429783 -0.546591 1.193165 6.324535 -5.688738 3.341580 
-3.818513 50.755085 10.295844 5.688649 2.013704 23.003468 8.255935 -1.815896 -1.358287 5.855206 -8.570885 -1.610400 24.798994 3.645414 -9.971191 -0.618026 11.898194 -6.896345 -10.169416 -20.454433 2.048320 25.375248 -64.725174 -22.899187 -66.974548 8.301076 10.172245 17.077633 -14.039392 9.156601 8.624679 0.476737 5.068823 -25.445171 30.089087 0.515726 68.757034 -8.936163 13.341513 -12.672627 4.606603 -17.695259 -11.612960 -0.722332 2.749571 -2.849946 -0.975444 -0.015822 21.113497 -9.359414 -2.371128 -1.279647 -15.609153 -7.691432 32.838142 -0.793307 1.051400 3.059284 -7.134332 3.860576 
